<svg xmlns="http://www.w3.org/2000/svg" width="179" height="178" viewBox="0 0 179 178" fill="none">
  <circle cx="89.9668" cy="89" r="87.5" fill="#B1B3F9" stroke="black" stroke-width="3"/>
  <path fill-rule="evenodd" clip-rule="evenodd" d="M89.4655 80.5884C73.1543 87.9486 62.8211 105.423 65.5142 121.139C66.1115 124.736 64.9551 125.346 61.8035 123.077C58.8684 120.975 58.1159 112.553 60.0467 103.66C62.6591 91.6602 76.9002 78.0015 85.7407 76.3012C89.6229 75.5322 94.8393 78.1672 89.4655 80.5884Z" fill="black"/>
  <path fill-rule="evenodd" clip-rule="evenodd" d="M80.3754 59.3753C60.1897 72.3776 69.5259 72.3938 75.05 69.2078L78.4725 67.2339C92.0613 86.5209 96.3002 94.4778 106.349 112.766C96.292 118.566 94.2455 119.667 97.9091 121.434C99.8443 122.359 100.407 122.154 112.823 115.033C124.747 108.236 124.969 108.068 124.38 107.048C123.027 104.707 120.624 104.773 115.729 107.316L111.872 109.301C108.698 103.81 94.7249 79.4238 91.4526 74.8701C82.6181 62.5625 82.8835 64.1298 88.7018 60.414C98.5718 54.0814 91.8264 52.7309 88.7929 54.2004C87.107 55.0928 84.5772 56.6719 80.3754 59.3753Z" fill="black"/>
</svg>